<?xml version="1.0" encoding="UTF-8" ?>
<svg version="1.1" width="32" height="32" xmlns="http://www.w3.org/2000/svg" shape-rendering="crispEdges">
<rect x="14" y="9" width="7" height="1" fill="#AC3232" />
<rect x="13" y="10" width="1" height="1" fill="#AC3232" />
<rect x="14" y="10" width="5" height="1" fill="#8F563B" />
<rect x="19" y="10" width="2" height="1" fill="#AC3232" />
<rect x="12" y="11" width="1" height="2" fill="#AC3232" />
<rect x="13" y="11" width="5" height="1" fill="#8F563B" />
<rect x="18" y="11" width="1" height="1" fill="#AC3232" />
<rect x="19" y="11" width="1" height="7" fill="#8F563B" />
<rect x="20" y="11" width="1" height="7" fill="#AC3232" />
<rect x="11" y="12" width="1" height="9" fill="#AC3232" />
<rect x="13" y="12" width="5" height="1" fill="#AC3232" />
<rect x="18" y="12" width="1" height="7" fill="#8F563B" />
<rect x="12" y="13" width="5" height="7" fill="#8F563B" />
<rect x="17" y="13" width="1" height="8" fill="#AC3232" />
<rect x="19" y="18" width="1" height="1" fill="#AC3232" />
<rect x="18" y="19" width="1" height="1" fill="#AC3232" />
<rect x="12" y="20" width="5" height="1" fill="#AC3232" />
</svg>