<?xml version="1.0" encoding="UTF-8" ?>
<svg version="1.1" width="32" height="32" xmlns="http://www.w3.org/2000/svg" shape-rendering="crispEdges">
<rect x="12" y="11" width="4" height="3" fill="#FFFFFF" />
<rect x="16" y="11" width="2" height="1" fill="#CBDBFC" />
<rect x="18" y="11" width="1" height="3" fill="#FFFFFF" />
<rect x="9" y="12" width="3" height="1" fill="#FFFFFF" />
<rect x="16" y="12" width="1" height="2" fill="#FFFFFF" />
<rect x="17" y="12" width="1" height="1" fill="#CBDBFC" />
<rect x="19" y="12" width="4" height="3" fill="#FFFFFF" />
<rect x="7" y="13" width="3" height="2" fill="#FFFFFF" />
<rect x="10" y="13" width="2" height="1" fill="#CBDBFC" />
<rect x="17" y="13" width="1" height="1" fill="#FFFFFF" />
<rect x="23" y="13" width="1" height="8" fill="#FFFFFF" />
<rect x="6" y="14" width="1" height="3" fill="#FFFFFF" />
<rect x="10" y="14" width="1" height="6" fill="#FFFFFF" />
<rect x="11" y="14" width="2" height="1" fill="#CBDBFC" />
<rect x="13" y="14" width="3" height="6" fill="#FFFFFF" />
<rect x="16" y="14" width="3" height="1" fill="#CBDBFC" />
<rect x="7" y="15" width="1" height="3" fill="#FFFFFF" />
<rect x="8" y="15" width="2" height="1" fill="#CBDBFC" />
<rect x="11" y="15" width="2" height="2" fill="#FFFFFF" />
<rect x="16" y="15" width="5" height="2" fill="#FFFFFF" />
<rect x="21" y="15" width="2" height="1" fill="#CBDBFC" />
<rect x="24" y="15" width="1" height="5" fill="#FFFFFF" />
<rect x="8" y="16" width="1" height="2" fill="#FFFFFF" />
<rect x="9" y="16" width="1" height="1" fill="#CBDBFC" />
<rect x="21" y="16" width="1" height="2" fill="#FFFFFF" />
<rect x="22" y="16" width="1" height="1" fill="#CBDBFC" />
<rect x="9" y="17" width="1" height="2" fill="#FFFFFF" />
<rect x="11" y="17" width="1" height="4" fill="#FFFFFF" />
<rect x="12" y="17" width="1" height="1" fill="#CBDBFC" />
<rect x="16" y="17" width="1" height="5" fill="#FFFFFF" />
<rect x="17" y="17" width="1" height="2" fill="#CBDBFC" />
<rect x="18" y="17" width="3" height="4" fill="#FFFFFF" />
<rect x="22" y="17" width="1" height="4" fill="#FFFFFF" />
<rect x="12" y="18" width="1" height="3" fill="#FFFFFF" />
<rect x="21" y="18" width="1" height="1" fill="#CBDBFC" />
<rect x="17" y="19" width="1" height="3" fill="#FFFFFF" />
<rect x="21" y="19" width="1" height="3" fill="#FFFFFF" />
<rect x="13" y="20" width="1" height="2" fill="#FFFFFF" />
<rect x="14" y="20" width="1" height="1" fill="#CBDBFC" />
<rect x="15" y="20" width="1" height="2" fill="#FFFFFF" />
<rect x="14" y="21" width="1" height="1" fill="#FFFFFF" />
<rect x="18" y="21" width="1" height="1" fill="#FFFFFF" />
<rect x="19" y="21" width="1" height="1" fill="#CBDBFC" />
<rect x="20" y="21" width="1" height="1" fill="#FFFFFF" />
</svg>