<?xml version="1.0" encoding="UTF-8" ?>
<svg version="1.1" width="32" height="32" xmlns="http://www.w3.org/2000/svg" shape-rendering="crispEdges">
<rect x="9" y="4" width="13" height="1" fill="#8A4926" />
<rect x="8" y="5" width="2" height="1" fill="#8A4926" />
<rect x="10" y="5" width="11" height="2" fill="#B66831" />
<rect x="21" y="5" width="2" height="1" fill="#8A4926" />
<rect x="7" y="6" width="2" height="1" fill="#8A4926" />
<rect x="9" y="6" width="1" height="1" fill="#B66831" />
<rect x="21" y="6" width="1" height="1" fill="#B66831" />
<rect x="22" y="6" width="2" height="1" fill="#8A4926" />
<rect x="7" y="7" width="1" height="18" fill="#8A4926" />
<rect x="8" y="7" width="1" height="17" fill="#B66831" />
<rect x="9" y="7" width="2" height="1" fill="#8A4926" />
<rect x="11" y="7" width="9" height="1" fill="#B66831" />
<rect x="20" y="7" width="2" height="1" fill="#8A4926" />
<rect x="22" y="7" width="1" height="17" fill="#B66831" />
<rect x="23" y="7" width="1" height="18" fill="#8A4926" />
<rect x="9" y="8" width="2" height="17" fill="#B66831" />
<rect x="11" y="8" width="9" height="1" fill="#8A4926" />
<rect x="20" y="8" width="2" height="17" fill="#B66831" />
<rect x="11" y="9" width="1" height="16" fill="#461C14" />
<rect x="12" y="9" width="7" height="1" fill="#B66831" />
<rect x="19" y="9" width="1" height="16" fill="#461C14" />
<rect x="12" y="10" width="3" height="2" fill="#B66831" />
<rect x="15" y="10" width="1" height="10" fill="#47F641" />
<rect x="16" y="10" width="3" height="4" fill="#B66831" />
<rect x="12" y="12" width="1" height="13" fill="#B66831" />
<rect x="13" y="12" width="1" height="6" fill="#47F641" />
<rect x="14" y="12" width="1" height="5" fill="#B66831" />
<rect x="16" y="14" width="1" height="4" fill="#B66831" />
<rect x="17" y="14" width="1" height="4" fill="#47F641" />
<rect x="18" y="14" width="1" height="11" fill="#B66831" />
<rect x="14" y="17" width="1" height="2" fill="#47F641" />
<rect x="13" y="18" width="1" height="7" fill="#B66831" />
<rect x="16" y="18" width="1" height="1" fill="#47F641" />
<rect x="17" y="18" width="1" height="7" fill="#B66831" />
<rect x="14" y="19" width="1" height="6" fill="#B66831" />
<rect x="16" y="19" width="1" height="6" fill="#B66831" />
<rect x="15" y="20" width="1" height="1" fill="#08B23B" />
<rect x="15" y="21" width="1" height="4" fill="#B66831" />
<rect x="8" y="24" width="1" height="2" fill="#8A4926" />
<rect x="22" y="24" width="1" height="2" fill="#8A4926" />
<rect x="9" y="25" width="13" height="1" fill="#8A4926" />
</svg>