<?xml version="1.0" encoding="UTF-8" ?>
<svg version="1.1" width="32" height="32" xmlns="http://www.w3.org/2000/svg" shape-rendering="crispEdges">
<rect x="22" y="11" width="2" height="1" fill="#CBDBFC" />
<rect x="21" y="12" width="2" height="1" fill="#CBDBFC" />
<rect x="9" y="13" width="11" height="1" fill="#696A6A" />
<rect x="20" y="13" width="2" height="1" fill="#CBDBFC" />
<rect x="22" y="13" width="1" height="1" fill="#696A6A" />
<rect x="8" y="14" width="1" height="12" fill="#696A6A" />
<rect x="9" y="14" width="10" height="1" fill="#FFFFFF" />
<rect x="19" y="14" width="2" height="1" fill="#CBDBFC" />
<rect x="21" y="14" width="2" height="1" fill="#FFFFFF" />
<rect x="23" y="14" width="1" height="12" fill="#696A6A" />
<rect x="9" y="15" width="1" height="1" fill="#696A6A" />
<rect x="10" y="15" width="8" height="1" fill="#FFFFFF" />
<rect x="18" y="15" width="2" height="1" fill="#CBDBFC" />
<rect x="20" y="15" width="2" height="1" fill="#FFFFFF" />
<rect x="22" y="15" width="1" height="1" fill="#696A6A" />
<rect x="9" y="16" width="1" height="9" fill="#9BADB7" />
<rect x="10" y="16" width="12" height="1" fill="#696A6A" />
<rect x="22" y="16" width="1" height="9" fill="#9BADB7" />
<rect x="10" y="17" width="12" height="1" fill="#9BADB7" />
<rect x="10" y="18" width="1" height="6" fill="#FFFFFF" />
<rect x="11" y="18" width="3" height="1" fill="#9BADB7" />
<rect x="14" y="18" width="1" height="6" fill="#FFFFFF" />
<rect x="15" y="18" width="1" height="7" fill="#9BADB7" />
<rect x="16" y="18" width="2" height="1" fill="#FFFFFF" />
<rect x="18" y="18" width="1" height="7" fill="#9BADB7" />
<rect x="19" y="18" width="3" height="1" fill="#FFFFFF" />
<rect x="11" y="19" width="1" height="1" fill="#FFFFFF" />
<rect x="12" y="19" width="1" height="1" fill="#9BADB7" />
<rect x="13" y="19" width="1" height="1" fill="#FFFFFF" />
<rect x="16" y="19" width="1" height="3" fill="#FFFFFF" />
<rect x="17" y="19" width="1" height="2" fill="#9BADB7" />
<rect x="19" y="19" width="1" height="5" fill="#FFFFFF" />
<rect x="20" y="19" width="2" height="2" fill="#9BADB7" />
<rect x="11" y="20" width="1" height="5" fill="#9BADB7" />
<rect x="12" y="20" width="1" height="1" fill="#FFFFFF" />
<rect x="13" y="20" width="1" height="5" fill="#9BADB7" />
<rect x="12" y="21" width="1" height="4" fill="#9BADB7" />
<rect x="17" y="21" width="1" height="3" fill="#FFFFFF" />
<rect x="20" y="21" width="1" height="2" fill="#9BADB7" />
<rect x="21" y="21" width="1" height="3" fill="#FFFFFF" />
<rect x="16" y="22" width="1" height="1" fill="#9BADB7" />
<rect x="16" y="23" width="1" height="1" fill="#FFFFFF" />
<rect x="20" y="23" width="1" height="1" fill="#FFFFFF" />
<rect x="10" y="24" width="1" height="1" fill="#9BADB7" />
<rect x="14" y="24" width="1" height="1" fill="#9BADB7" />
<rect x="16" y="24" width="2" height="1" fill="#9BADB7" />
<rect x="19" y="24" width="3" height="1" fill="#9BADB7" />
<rect x="9" y="25" width="14" height="1" fill="#696A6A" />
</svg>