<?xml version="1.0" encoding="UTF-8" ?>
<svg version="1.1" width="32" height="32" xmlns="http://www.w3.org/2000/svg" shape-rendering="crispEdges">
<rect x="7" y="4" width="18" height="1" fill="#D9A066" />
<rect x="7" y="5" width="1" height="23" fill="#D9A066" />
<rect x="8" y="5" width="16" height="1" fill="#EEC39A" />
<rect x="24" y="5" width="1" height="23" fill="#D9A066" />
<rect x="8" y="6" width="1" height="21" fill="#EEC39A" />
<rect x="9" y="6" width="1" height="6" fill="#FBF236" />
<rect x="10" y="6" width="14" height="1" fill="#EEC39A" />
<rect x="10" y="7" width="3" height="1" fill="#FBF236" />
<rect x="13" y="7" width="1" height="14" fill="#EEC39A" />
<rect x="14" y="7" width="4" height="1" fill="#FBF236" />
<rect x="18" y="7" width="1" height="14" fill="#EEC39A" />
<rect x="19" y="7" width="4" height="1" fill="#FBF236" />
<rect x="23" y="7" width="1" height="20" fill="#EEC39A" />
<rect x="10" y="8" width="2" height="6" fill="#EEC39A" />
<rect x="12" y="8" width="1" height="4" fill="#FBF236" />
<rect x="14" y="8" width="1" height="4" fill="#FBF236" />
<rect x="15" y="8" width="2" height="3" fill="#EEC39A" />
<rect x="17" y="8" width="1" height="4" fill="#FBF236" />
<rect x="19" y="8" width="1" height="4" fill="#FBF236" />
<rect x="20" y="8" width="2" height="3" fill="#EEC39A" />
<rect x="22" y="8" width="1" height="4" fill="#FBF236" />
<rect x="15" y="11" width="2" height="1" fill="#FBF236" />
<rect x="20" y="11" width="2" height="1" fill="#FBF236" />
<rect x="9" y="12" width="1" height="2" fill="#EEC39A" />
<rect x="12" y="12" width="1" height="3" fill="#EEC39A" />
<rect x="14" y="12" width="4" height="2" fill="#EEC39A" />
<rect x="19" y="12" width="4" height="2" fill="#EEC39A" />
<rect x="9" y="14" width="3" height="1" fill="#FBF236" />
<rect x="14" y="14" width="1" height="6" fill="#FBF236" />
<rect x="15" y="14" width="3" height="5" fill="#EEC39A" />
<rect x="19" y="14" width="4" height="1" fill="#FBF236" />
<rect x="9" y="15" width="1" height="5" fill="#FBF236" />
<rect x="10" y="15" width="2" height="4" fill="#EEC39A" />
<rect x="12" y="15" width="1" height="4" fill="#FBF236" />
<rect x="19" y="15" width="1" height="5" fill="#FBF236" />
<rect x="20" y="15" width="3" height="1" fill="#EEC39A" />
<rect x="20" y="16" width="3" height="1" fill="#FBF236" />
<rect x="20" y="17" width="3" height="2" fill="#EEC39A" />
<rect x="10" y="19" width="2" height="1" fill="#FBF236" />
<rect x="12" y="19" width="1" height="2" fill="#EEC39A" />
<rect x="15" y="19" width="3" height="1" fill="#FBF236" />
<rect x="20" y="19" width="3" height="1" fill="#FBF236" />
<rect x="9" y="20" width="3" height="1" fill="#EEC39A" />
<rect x="14" y="20" width="4" height="1" fill="#EEC39A" />
<rect x="19" y="20" width="4" height="1" fill="#EEC39A" />
<rect x="9" y="21" width="14" height="1" fill="#FBF236" />
<rect x="9" y="22" width="1" height="5" fill="#EEC39A" />
<rect x="10" y="22" width="1" height="3" fill="#FBF236" />
<rect x="11" y="22" width="1" height="5" fill="#EEC39A" />
<rect x="12" y="22" width="1" height="4" fill="#FBF236" />
<rect x="13" y="22" width="1" height="5" fill="#EEC39A" />
<rect x="14" y="22" width="1" height="1" fill="#FBF236" />
<rect x="15" y="22" width="1" height="5" fill="#EEC39A" />
<rect x="16" y="22" width="1" height="3" fill="#FBF236" />
<rect x="17" y="22" width="1" height="5" fill="#EEC39A" />
<rect x="18" y="22" width="1" height="4" fill="#FBF236" />
<rect x="19" y="22" width="1" height="5" fill="#EEC39A" />
<rect x="20" y="22" width="1" height="2" fill="#FBF236" />
<rect x="21" y="22" width="1" height="5" fill="#EEC39A" />
<rect x="22" y="22" width="1" height="3" fill="#FBF236" />
<rect x="14" y="23" width="1" height="4" fill="#EEC39A" />
<rect x="20" y="24" width="1" height="3" fill="#EEC39A" />
<rect x="10" y="25" width="1" height="2" fill="#EEC39A" />
<rect x="16" y="25" width="1" height="2" fill="#EEC39A" />
<rect x="22" y="25" width="1" height="2" fill="#EEC39A" />
<rect x="12" y="26" width="1" height="1" fill="#EEC39A" />
<rect x="18" y="26" width="1" height="1" fill="#EEC39A" />
<rect x="8" y="27" width="16" height="1" fill="#D9A066" />
</svg>