<?xml version="1.0" encoding="UTF-8" ?>
<svg version="1.1" width="32" height="32" xmlns="http://www.w3.org/2000/svg" shape-rendering="crispEdges">
<rect x="14" y="3" width="3" height="2" fill="#8F563B" />
<rect x="13" y="4" width="1" height="1" fill="#8F563B" />
<rect x="17" y="4" width="1" height="1" fill="#8F563B" />
<rect x="13" y="5" width="5" height="1" fill="#9BADB7" />
<rect x="13" y="6" width="1" height="7" fill="#9BADB7" />
<rect x="14" y="6" width="3" height="9" fill="#45283C" />
<rect x="17" y="6" width="1" height="7" fill="#9BADB7" />
<rect x="12" y="13" width="1" height="1" fill="#9BADB7" />
<rect x="13" y="13" width="1" height="2" fill="#45283C" />
<rect x="17" y="13" width="1" height="2" fill="#45283C" />
<rect x="18" y="13" width="1" height="1" fill="#9BADB7" />
<rect x="11" y="14" width="1" height="15" fill="#9BADB7" />
<rect x="12" y="14" width="1" height="14" fill="#45283C" />
<rect x="18" y="14" width="1" height="14" fill="#45283C" />
<rect x="19" y="14" width="1" height="15" fill="#9BADB7" />
<rect x="13" y="15" width="5" height="1" fill="#FFFFFF" />
<rect x="13" y="16" width="1" height="8" fill="#FFFFFF" />
<rect x="14" y="16" width="3" height="2" fill="#45283C" />
<rect x="17" y="16" width="1" height="8" fill="#FFFFFF" />
<rect x="14" y="18" width="2" height="1" fill="#45283C" />
<rect x="16" y="18" width="1" height="1" fill="#FFFFFF" />
<rect x="14" y="19" width="1" height="1" fill="#45283C" />
<rect x="15" y="19" width="1" height="1" fill="#FFFFFF" />
<rect x="16" y="19" width="1" height="4" fill="#45283C" />
<rect x="14" y="20" width="1" height="1" fill="#FFFFFF" />
<rect x="15" y="20" width="1" height="3" fill="#45283C" />
<rect x="14" y="21" width="1" height="2" fill="#45283C" />
<rect x="14" y="23" width="3" height="1" fill="#FFFFFF" />
<rect x="13" y="24" width="5" height="4" fill="#45283C" />
<rect x="12" y="28" width="7" height="1" fill="#9BADB7" />
</svg>