<?xml version="1.0" encoding="UTF-8" ?>
<svg version="1.1" width="32" height="32" xmlns="http://www.w3.org/2000/svg" shape-rendering="crispEdges">
<rect x="14" y="1" width="4" height="7" fill="#461C14" />
<rect x="13" y="7" width="1" height="22" fill="#686B72" />
<rect x="18" y="7" width="1" height="22" fill="#686B72" />
<rect x="11" y="8" width="2" height="20" fill="#686B72" />
<rect x="14" y="8" width="4" height="21" fill="#686B72" />
<rect x="19" y="8" width="2" height="20" fill="#686B72" />
<rect x="9" y="9" width="2" height="18" fill="#686B72" />
<rect x="21" y="9" width="2" height="18" fill="#686B72" />
<rect x="8" y="10" width="1" height="16" fill="#686B72" />
<rect x="23" y="10" width="1" height="16" fill="#686B72" />
<rect x="7" y="11" width="1" height="14" fill="#686B72" />
<rect x="24" y="11" width="1" height="14" fill="#686B72" />
<rect x="6" y="13" width="1" height="10" fill="#686B72" />
<rect x="25" y="13" width="1" height="10" fill="#686B72" />
<rect x="5" y="15" width="1" height="6" fill="#686B72" />
<rect x="26" y="15" width="1" height="6" fill="#686B72" />
</svg>