<?xml version="1.0" encoding="UTF-8" ?>
<svg version="1.1" width="32" height="32" xmlns="http://www.w3.org/2000/svg" shape-rendering="crispEdges">
<rect x="8" y="8" width="1" height="1" fill="#AC3232" />
<rect x="10" y="8" width="1" height="1" fill="#AC3232" />
<rect x="13" y="8" width="1" height="1" fill="#AC3232" />
<rect x="15" y="8" width="1" height="1" fill="#AC3232" />
<rect x="18" y="8" width="1" height="1" fill="#AC3232" />
<rect x="20" y="8" width="1" height="1" fill="#AC3232" />
<rect x="23" y="8" width="1" height="1" fill="#AC3232" />
<rect x="25" y="8" width="1" height="1" fill="#AC3232" />
<rect x="9" y="9" width="1" height="1" fill="#AC3232" />
<rect x="14" y="9" width="1" height="1" fill="#AC3232" />
<rect x="19" y="9" width="1" height="1" fill="#AC3232" />
<rect x="24" y="9" width="1" height="1" fill="#AC3232" />
<rect x="8" y="10" width="2" height="3" fill="#D9A066" />
<rect x="13" y="10" width="2" height="3" fill="#D9A066" />
<rect x="18" y="10" width="2" height="3" fill="#D9A066" />
<rect x="23" y="10" width="2" height="3" fill="#D9A066" />
<rect x="7" y="13" width="2" height="1" fill="#D9A066" />
<rect x="9" y="13" width="1" height="1" fill="#D95763" />
<rect x="12" y="13" width="2" height="1" fill="#D9A066" />
<rect x="14" y="13" width="1" height="1" fill="#D95763" />
<rect x="17" y="13" width="2" height="1" fill="#D9A066" />
<rect x="19" y="13" width="1" height="1" fill="#D95763" />
<rect x="22" y="13" width="2" height="1" fill="#D9A066" />
<rect x="24" y="13" width="1" height="1" fill="#D95763" />
<rect x="6" y="14" width="2" height="1" fill="#D9A066" />
<rect x="8" y="14" width="1" height="1" fill="#D95763" />
<rect x="9" y="14" width="1" height="1" fill="#D9A066" />
<rect x="11" y="14" width="2" height="1" fill="#D9A066" />
<rect x="13" y="14" width="1" height="1" fill="#D95763" />
<rect x="14" y="14" width="1" height="1" fill="#D9A066" />
<rect x="16" y="14" width="2" height="1" fill="#D9A066" />
<rect x="18" y="14" width="1" height="1" fill="#D95763" />
<rect x="19" y="14" width="1" height="1" fill="#D9A066" />
<rect x="21" y="14" width="2" height="1" fill="#D9A066" />
<rect x="23" y="14" width="1" height="1" fill="#D95763" />
<rect x="24" y="14" width="1" height="1" fill="#D9A066" />
<rect x="5" y="15" width="22" height="1" fill="#696A6A" />
<rect x="5" y="16" width="3" height="1" fill="#696A6A" />
<rect x="8" y="16" width="16" height="1" fill="#847E87" />
<rect x="24" y="16" width="3" height="1" fill="#696A6A" />
<rect x="6" y="17" width="3" height="1" fill="#696A6A" />
<rect x="9" y="17" width="14" height="1" fill="#847E87" />
<rect x="23" y="17" width="3" height="1" fill="#696A6A" />
<rect x="7" y="18" width="3" height="1" fill="#696A6A" />
<rect x="10" y="18" width="12" height="1" fill="#847E87" />
<rect x="22" y="18" width="3" height="1" fill="#696A6A" />
<rect x="8" y="19" width="5" height="1" fill="#696A6A" />
<rect x="13" y="19" width="6" height="1" fill="#847E87" />
<rect x="19" y="19" width="5" height="1" fill="#696A6A" />
<rect x="10" y="20" width="4" height="1" fill="#696A6A" />
<rect x="14" y="20" width="4" height="1" fill="#847E87" />
<rect x="18" y="20" width="5" height="1" fill="#696A6A" />
<rect x="12" y="21" width="8" height="1" fill="#696A6A" />
</svg>