<?xml version="1.0" encoding="UTF-8" ?>
<svg version="1.1" width="32" height="32" xmlns="http://www.w3.org/2000/svg" shape-rendering="crispEdges">
<rect x="13" y="5" width="6" height="1" fill="#000000" />
<rect x="11" y="6" width="2" height="1" fill="#000000" />
<rect x="13" y="6" width="6" height="20" fill="#FFFFFF" />
<rect x="19" y="6" width="2" height="1" fill="#000000" />
<rect x="9" y="7" width="2" height="1" fill="#000000" />
<rect x="11" y="7" width="2" height="18" fill="#FFFFFF" />
<rect x="19" y="7" width="2" height="18" fill="#FFFFFF" />
<rect x="21" y="7" width="2" height="1" fill="#000000" />
<rect x="8" y="8" width="1" height="1" fill="#000000" />
<rect x="9" y="8" width="2" height="16" fill="#FFFFFF" />
<rect x="21" y="8" width="2" height="16" fill="#FFFFFF" />
<rect x="23" y="8" width="1" height="1" fill="#000000" />
<rect x="7" y="9" width="1" height="2" fill="#000000" />
<rect x="8" y="9" width="1" height="14" fill="#FFFFFF" />
<rect x="23" y="9" width="1" height="14" fill="#FFFFFF" />
<rect x="24" y="9" width="1" height="2" fill="#000000" />
<rect x="6" y="11" width="1" height="2" fill="#000000" />
<rect x="7" y="11" width="1" height="10" fill="#FFFFFF" />
<rect x="24" y="11" width="1" height="10" fill="#FFFFFF" />
<rect x="25" y="11" width="1" height="2" fill="#000000" />
<rect x="5" y="13" width="1" height="6" fill="#000000" />
<rect x="6" y="13" width="1" height="6" fill="#FFFFFF" />
<rect x="25" y="13" width="1" height="6" fill="#FFFFFF" />
<rect x="26" y="13" width="1" height="6" fill="#000000" />
<rect x="6" y="19" width="1" height="2" fill="#000000" />
<rect x="25" y="19" width="1" height="2" fill="#000000" />
<rect x="7" y="21" width="1" height="2" fill="#000000" />
<rect x="24" y="21" width="1" height="2" fill="#000000" />
<rect x="8" y="23" width="1" height="1" fill="#000000" />
<rect x="23" y="23" width="1" height="1" fill="#000000" />
<rect x="9" y="24" width="2" height="1" fill="#000000" />
<rect x="21" y="24" width="2" height="1" fill="#000000" />
<rect x="11" y="25" width="2" height="1" fill="#000000" />
<rect x="19" y="25" width="2" height="1" fill="#000000" />
<rect x="13" y="26" width="6" height="1" fill="#000000" />
</svg>