<?xml version="1.0" encoding="UTF-8" ?>
<svg version="1.1" width="32" height="32" xmlns="http://www.w3.org/2000/svg" shape-rendering="crispEdges">
<rect x="13" y="5" width="4" height="1" fill="#CBDBFC" />
<rect x="13" y="6" width="1" height="5" fill="#CBDBFC" />
<rect x="14" y="6" width="2" height="4" fill="#FFFFFF" />
<rect x="16" y="6" width="1" height="5" fill="#CBDBFC" />
<rect x="14" y="10" width="2" height="1" fill="#CBDBFC" />
<rect x="12" y="12" width="8" height="1" fill="#CBDBFC" />
<rect x="12" y="13" width="1" height="12" fill="#CBDBFC" />
<rect x="13" y="13" width="1" height="4" fill="#FFFFFF" />
<rect x="14" y="13" width="1" height="5" fill="#5FCDE4" />
<rect x="15" y="13" width="2" height="3" fill="#FFFFFF" />
<rect x="17" y="13" width="1" height="5" fill="#5FCDE4" />
<rect x="18" y="13" width="1" height="4" fill="#FFFFFF" />
<rect x="19" y="13" width="1" height="12" fill="#CBDBFC" />
<rect x="9" y="16" width="2" height="4" fill="#CBDBFC" />
<rect x="15" y="16" width="2" height="2" fill="#5FCDE4" />
<rect x="21" y="16" width="2" height="4" fill="#CBDBFC" />
<rect x="13" y="17" width="1" height="6" fill="#5FCDE4" />
<rect x="18" y="17" width="1" height="6" fill="#5FCDE4" />
<rect x="14" y="18" width="4" height="1" fill="#AC3232" />
<rect x="14" y="19" width="4" height="1" fill="#5FCDE4" />
<rect x="14" y="20" width="4" height="1" fill="#AC3232" />
<rect x="14" y="21" width="4" height="2" fill="#5FCDE4" />
<rect x="13" y="23" width="6" height="1" fill="#FFFFFF" />
<rect x="13" y="24" width="6" height="1" fill="#CBDBFC" />
</svg>